<?xml version="1.0" encoding="utf-8"?>
<svg viewBox="0 0 500 500" xmlns="http://www.w3.org/2000/svg">
  <path d="M 409.242 210.415 L 290.486 210.415 L 290.486 91.659 C 290.486 77.086 278.668 65.269 264.095 65.269 L 237.705 65.269 C 223.133 65.269 211.315 77.086 211.315 91.659 L 211.315 210.415 L 92.559 210.415 C 77.987 210.415 66.169 222.233 66.169 236.805 L 66.169 263.195 C 66.169 277.767 77.987 289.585 92.559 289.585 L 211.315 289.585 L 211.315 408.341 C 211.315 422.914 223.133 434.731 237.705 434.731 L 264.095 434.731 C 278.668 434.731 290.486 422.914 290.486 408.341 L 290.486 289.585 L 409.242 289.585 C 423.814 289.585 435.632 277.767 435.632 263.195 L 435.632 236.805 C 435.632 222.233 423.814 210.415 409.242 210.415 Z" style="fill: rgb(4, 211, 97);"/>
</svg>