<?xml version="1.0" encoding="utf-8"?>
<svg viewBox="0 0 145.833 40" fill="none" xmlns="http://www.w3.org/2000/svg">
  <path d="M38.125 19.8876C38.1494 23.0542 37.3398 26.1714 35.7774 28.9259C35.575 29.2837 35.3607 29.6337 35.1344 29.9759C35.0225 30.1498 34.8772 30.2998 34.7069 30.4171C34.5367 30.5345 34.3448 30.6169 34.1424 30.6595C33.94 30.7021 33.7312 30.7041 33.5281 30.6655C33.3249 30.6268 33.1315 30.5482 32.9589 30.4341C32.7864 30.3201 32.6382 30.173 32.523 30.0013C32.4077 29.8296 32.3277 29.6367 32.2875 29.4338C32.2474 29.231 32.2479 29.0222 32.2891 28.8195C32.3303 28.6168 32.4113 28.4244 32.5274 28.2532C34.0185 25.9897 34.8685 23.3644 34.987 20.6564C35.1054 17.9484 34.4879 15.2589 33.2001 12.8738C31.9123 10.4887 30.0022 8.49708 27.673 7.11069C25.3438 5.7243 22.6825 4.99493 19.9719 5.0001C14.7618 5.01026 10.1422 7.74541 7.45706 11.8321C5.85189 14.2703 4.99772 17.1259 5.0005 20.045C5.00327 22.9641 5.86288 25.8182 7.47269 28.2532C7.70092 28.5991 7.78239 29.0216 7.69917 29.4275C7.61595 29.8335 7.37486 30.1898 7.02894 30.4181C6.68302 30.6463 6.2606 30.7278 5.85461 30.6445C5.44863 30.5613 5.09233 30.3202 4.8641 29.9743C3.0791 27.2655 2.05381 24.1272 1.89521 20.887C1.73662 17.6468 2.45053 14.4235 3.96245 11.5533C5.47437 8.68306 7.72889 6.27121 10.4907 4.56941C13.2526 2.86761 16.4206 1.93822 19.6641 1.87822C19.7782 1.87588 19.8914 1.8751 20.0047 1.8751C24.7949 1.86523 29.3933 3.75637 32.7905 7.13341C36.1878 10.5105 38.1063 15.0975 38.125 19.8876Z" style="fill: rgb(255, 255, 255);"/>
  <path d="M9.06588 22.7944L11.8978 36.8819C12.0678 37.7276 12.8911 38.2753 13.7368 38.1053C14.5825 37.9353 15.1303 37.1119 14.9603 36.2663L12.1284 22.1788C11.9584 21.3331 11.135 20.7853 10.2893 20.9553C9.44363 21.1253 8.89588 21.9487 9.06588 22.7944Z" style="fill: rgb(179, 205, 190);"/>
  <path d="M11.8438 36.5641L11.1258 36.7086C10.059 36.9234 8.95038 36.7225 8.02677 36.147C7.10316 35.5715 6.43432 34.6648 6.15706 33.6125C6.13597 33.5313 6.11644 33.45 6.10003 33.3672L5.07112 28.2555C4.84815 27.1459 5.07485 25.9931 5.70141 25.0506C6.32796 24.108 7.3031 23.4528 8.41253 23.2289L9.1305 23.0844L10.3899 29.3406L11.8438 36.5641Z" style="fill: rgb(255, 255, 255);"/>
  <path d="M11.8438 36.5641L11.1259 36.7086C10.059 36.9234 8.95043 36.7225 8.02682 36.147C7.1032 35.5715 6.43437 34.6649 6.1571 33.6125C7.67448 32.2981 9.08951 30.87 10.3899 29.3407L11.8438 36.5641Z" style="fill: rgb(255, 255, 255);"/>
  <path d="M36.1477 27.0875L35.7774 28.9258C35.575 29.2836 35.3607 29.6336 35.1344 29.9758C35.0225 30.1497 34.8772 30.2997 34.7069 30.4171C34.5366 30.5344 34.3448 30.6168 34.1424 30.6594C33.94 30.702 33.7312 30.7041 33.5281 30.6654C33.3249 30.6267 33.1315 30.5481 32.9589 30.4341C32.7864 30.3201 32.6382 30.1729 32.5229 30.0012C32.4077 29.8295 32.3277 29.6366 32.2875 29.4338C32.2474 29.2309 32.2479 29.0221 32.2891 28.8194C32.3303 28.6167 32.4112 28.4243 32.5274 28.2531C33.5865 26.6502 34.3258 24.8577 34.7047 22.9742C35.2927 23.4668 35.7371 24.1089 35.991 24.8327C36.245 25.5566 36.2991 26.3355 36.1477 27.0875Z" style="fill: rgb(255, 255, 255);"/>
  <path d="M34.2953 8.82971L32.0539 11.0711C30.6573 9.1825 28.836 7.64891 26.7371 6.59426C24.6383 5.53962 22.3208 4.99349 19.9719 5.00002C14.7617 5.01017 10.1422 7.74533 7.45703 11.832L5.18359 9.55861C6.82274 7.22938 8.98843 5.31984 11.5046 3.98527C14.0207 2.65069 16.8163 1.92875 19.6641 1.87814C19.7781 1.8758 19.8914 1.87502 20.0047 1.87502C22.7591 1.86885 25.4786 2.49223 27.9553 3.69756C30.4321 4.9029 32.6006 6.6583 34.2953 8.82971Z" style="fill: rgb(179, 205, 190);"/>
  <path d="M27.8464 22.1635L25.0145 36.251C24.8445 37.0967 25.3922 37.9201 26.2379 38.0901C27.0836 38.2601 27.907 37.7123 28.077 36.8666L30.9089 22.7791C31.0789 21.9335 30.5311 21.1101 29.6854 20.9401C28.8397 20.7701 28.0164 21.3178 27.8464 22.1635Z" style="fill: rgb(179, 205, 190);"/>
  <path d="M34.9289 28.2555L33.9 33.3672C33.6766 34.4767 33.0216 35.4521 32.0791 36.0787C31.1366 36.7054 29.9838 36.9319 28.8742 36.7086L28.1562 36.5641L28.9 32.8711L30.8695 23.0844L31.5875 23.2289C32.6968 23.4531 33.672 24.108 34.2992 25.05C34.3856 25.1799 34.4646 25.3144 34.5359 25.4531C34.9817 26.3154 35.1203 27.3038 34.9289 28.2555Z" style="fill: rgb(255, 255, 255);"/>
  <path d="M34.9289 28.2555L33.9 33.3672C33.6766 34.4768 33.0216 35.4521 32.0791 36.0788C31.1366 36.7054 29.9838 36.932 28.8742 36.7086L28.1562 36.5641L28.9 32.8711C31.0403 30.6086 32.9299 28.1215 34.5359 25.4531C34.9817 26.3154 35.1203 27.3039 34.9289 28.2555Z" style="fill: rgb(255, 255, 255);"/>
  <path d="M 48.327 13.957 L 51.657 13.957 L 51.657 25.947 L 48.327 25.947 L 48.327 13.957 ZM 64.803 17.907 L 61.213 17.907 C 61.02 17.587 60.756 17.344 60.423 17.177 C 60.09 17.004 59.696 16.917 59.243 16.917 C 58.403 16.917 57.743 17.19 57.263 17.737 C 56.783 18.277 56.543 19.007 56.543 19.927 C 56.543 20.96 56.8 21.747 57.313 22.287 C 57.826 22.82 58.576 23.087 59.563 23.087 C 60.73 23.087 61.563 22.56 62.063 21.507 L 58.713 21.507 L 58.713 19.117 L 64.943 19.117 L 64.943 22.347 C 64.676 22.98 64.293 23.574 63.793 24.127 C 63.286 24.68 62.65 25.137 61.883 25.497 C 61.11 25.857 60.23 26.037 59.243 26.037 C 58.043 26.037 56.98 25.777 56.053 25.257 C 55.133 24.744 54.42 24.024 53.913 23.097 C 53.406 22.177 53.153 21.12 53.153 19.927 C 53.153 18.747 53.406 17.697 53.913 16.777 C 54.42 15.85 55.13 15.13 56.043 14.617 C 56.963 14.104 58.023 13.847 59.223 13.847 C 60.73 13.847 61.976 14.207 62.963 14.927 C 63.95 15.654 64.563 16.647 64.803 17.907 ZM 66.022 19.927 C 66.022 18.747 66.269 17.697 66.762 16.777 C 67.255 15.85 67.955 15.13 68.862 14.617 C 69.769 14.104 70.812 13.847 71.992 13.847 C 73.492 13.847 74.752 14.244 75.772 15.037 C 76.792 15.837 77.449 16.924 77.742 18.297 L 74.152 18.297 C 73.939 17.844 73.642 17.497 73.262 17.257 C 72.882 17.024 72.442 16.907 71.942 16.907 C 71.169 16.907 70.555 17.18 70.102 17.727 C 69.642 18.274 69.412 19.007 69.412 19.927 C 69.412 20.86 69.642 21.6 70.102 22.147 C 70.555 22.694 71.169 22.967 71.942 22.967 C 72.442 22.967 72.882 22.85 73.262 22.617 C 73.642 22.377 73.939 22.03 74.152 21.577 L 77.742 21.577 C 77.449 22.95 76.792 24.037 75.772 24.837 C 74.752 25.637 73.492 26.037 71.992 26.037 C 70.812 26.037 69.769 25.777 68.862 25.257 C 67.955 24.744 67.255 24.024 66.762 23.097 C 66.269 22.177 66.022 21.12 66.022 19.927 ZM 90.558 17.907 L 86.968 17.907 C 86.775 17.587 86.511 17.344 86.178 17.177 C 85.845 17.004 85.451 16.917 84.998 16.917 C 84.158 16.917 83.498 17.19 83.018 17.737 C 82.538 18.277 82.298 19.007 82.298 19.927 C 82.298 20.96 82.555 21.747 83.068 22.287 C 83.581 22.82 84.331 23.087 85.318 23.087 C 86.485 23.087 87.318 22.56 87.818 21.507 L 84.468 21.507 L 84.468 19.117 L 90.698 19.117 L 90.698 22.347 C 90.431 22.98 90.048 23.574 89.548 24.127 C 89.041 24.68 88.405 25.137 87.638 25.497 C 86.865 25.857 85.985 26.037 84.998 26.037 C 83.798 26.037 82.735 25.777 81.808 25.257 C 80.888 24.744 80.175 24.024 79.668 23.097 C 79.161 22.177 78.908 21.12 78.908 19.927 C 78.908 18.747 79.161 17.697 79.668 16.777 C 80.175 15.85 80.885 15.13 81.798 14.617 C 82.718 14.104 83.778 13.847 84.978 13.847 C 86.485 13.847 87.731 14.207 88.718 14.927 C 89.705 15.654 90.318 16.647 90.558 17.907 ZM 102.167 13.957 L 106.177 13.957 L 106.177 25.947 L 102.847 25.947 L 102.847 19.337 L 100.587 25.947 L 97.797 25.947 L 95.517 19.287 L 95.517 25.947 L 92.187 25.947 L 92.187 13.957 L 96.217 13.957 L 99.227 21.747 L 102.167 13.957 ZM 114.492 16.407 L 117.842 16.407 L 117.842 25.947 L 114.492 25.947 L 114.492 24.587 C 114.212 25.02 113.822 25.37 113.322 25.637 C 112.822 25.904 112.249 26.037 111.602 26.037 C 110.495 26.037 109.619 25.67 108.972 24.937 C 108.332 24.204 108.012 23.207 108.012 21.947 L 108.012 16.407 L 111.332 16.407 L 111.332 21.527 C 111.332 22.074 111.475 22.5 111.762 22.807 C 112.055 23.12 112.439 23.277 112.912 23.277 C 113.399 23.277 113.785 23.12 114.072 22.807 C 114.352 22.5 114.492 22.074 114.492 21.527 L 114.492 16.407 ZM 123.814 26.067 C 122.947 26.067 122.177 25.924 121.504 25.637 C 120.831 25.344 120.297 24.947 119.904 24.447 C 119.517 23.94 119.301 23.37 119.254 22.737 L 122.484 22.737 C 122.531 23.044 122.671 23.28 122.904 23.447 C 123.144 23.62 123.441 23.707 123.794 23.707 C 124.067 23.707 124.281 23.65 124.434 23.537 C 124.594 23.424 124.674 23.274 124.674 23.087 C 124.674 22.854 124.544 22.68 124.284 22.567 C 124.024 22.454 123.594 22.327 122.994 22.187 C 122.314 22.054 121.747 21.9 121.294 21.727 C 120.841 21.56 120.447 21.284 120.114 20.897 C 119.781 20.51 119.614 19.99 119.614 19.337 C 119.614 18.77 119.767 18.257 120.074 17.797 C 120.374 17.337 120.824 16.97 121.424 16.697 C 122.017 16.424 122.734 16.287 123.574 16.287 C 124.821 16.287 125.801 16.594 126.514 17.207 C 127.227 17.82 127.641 18.627 127.754 19.627 L 124.744 19.627 C 124.691 19.32 124.557 19.084 124.344 18.917 C 124.137 18.75 123.857 18.667 123.504 18.667 C 123.231 18.667 123.024 18.72 122.884 18.827 C 122.744 18.927 122.674 19.067 122.674 19.247 C 122.674 19.474 122.804 19.647 123.064 19.767 C 123.324 19.887 123.744 20.01 124.324 20.137 C 125.011 20.284 125.584 20.447 126.044 20.627 C 126.504 20.807 126.907 21.097 127.254 21.497 C 127.601 21.904 127.774 22.45 127.774 23.137 C 127.774 23.697 127.611 24.197 127.284 24.637 C 126.964 25.077 126.504 25.427 125.904 25.687 C 125.311 25.94 124.614 26.067 123.814 26.067 ZM 131.09 15.527 C 130.497 15.527 130.023 15.364 129.67 15.037 C 129.31 14.717 129.13 14.314 129.13 13.827 C 129.13 13.327 129.31 12.914 129.67 12.587 C 130.023 12.254 130.497 12.087 131.09 12.087 C 131.663 12.087 132.13 12.254 132.49 12.587 C 132.843 12.914 133.02 13.327 133.02 13.827 C 133.02 14.314 132.843 14.717 132.49 15.037 C 132.13 15.364 131.663 15.527 131.09 15.527 Z M 129.4 16.407 L 132.73 16.407 L 132.73 25.947 L 129.4 25.947 L 129.4 16.407 ZM 134.096 21.167 C 134.096 20.18 134.299 19.32 134.706 18.587 C 135.113 17.847 135.683 17.28 136.416 16.887 C 137.149 16.487 137.986 16.287 138.926 16.287 C 140.139 16.287 141.159 16.62 141.986 17.287 C 142.813 17.947 143.343 18.874 143.576 20.067 L 140.046 20.067 C 139.839 19.44 139.443 19.127 138.856 19.127 C 138.436 19.127 138.103 19.3 137.856 19.647 C 137.616 19.994 137.496 20.5 137.496 21.167 C 137.496 21.84 137.616 22.35 137.856 22.697 C 138.103 23.05 138.436 23.227 138.856 23.227 C 139.456 23.227 139.853 22.914 140.046 22.287 L 143.576 22.287 C 143.343 23.467 142.813 24.394 141.986 25.067 C 141.159 25.734 140.139 26.067 138.926 26.067 C 137.986 26.067 137.149 25.867 136.416 25.467 C 135.683 25.074 135.113 24.507 134.706 23.767 C 134.299 23.034 134.096 22.167 134.096 21.167 Z" style="white-space: pre; fill: rgb(255, 255, 255);"/>
  <path d="M 50.24700039672852 34.123999603271486 Q 49.73400039672852 34.123999603271486 49.31550039672852 33.84949960327148 Q 48.897000396728515 33.574999603271486 48.65400039672851 33.07099960327148 Q 48.41100039672852 32.56699960327148 48.41100039672852 31.873999603271486 Q 48.41100039672852 31.180999603271484 48.63150039672851 30.474499603271482 Q 48.85200039672851 29.767999603271484 49.230000396728514 29.119999603271484 Q 49.608000396728514 28.471999603271485 50.10300039672852 27.963499603271483 Q 50.598000396728516 27.45499960327148 51.156000396728516 27.162499603271485 Q 51.714000396728515 26.869999603271484 52.281000396728516 26.869999603271484 Q 52.39800039672852 26.869999603271484 52.56000039672852 26.901499603271482 Q 52.72200039672852 26.932999603271483 52.87500039672852 27.07699960327148 Q 52.812000396728514 27.067999603271485 52.76250039672851 27.063499603271485 Q 52.71300039672852 27.058999603271484 52.659000396728516 27.058999603271484 Q 52.19100039672851 27.058999603271484 51.714000396728515 27.360499603271485 Q 51.23700039672852 27.661999603271482 50.805000396728516 28.165999603271484 Q 50.373000396728514 28.669999603271485 50.035500396728516 29.304499603271484 Q 49.69800039672852 29.938999603271483 49.50000039672852 30.622999603271484 Q 49.302000396728516 31.306999603271485 49.302000396728516 31.954999603271485 Q 49.302000396728516 32.422999603271485 49.428000396728514 32.832499603271486 Q 49.55400039672852 33.24199960327149 49.828500396728515 33.48949960327148 Q 50.10300039672852 33.736999603271485 50.553000396728514 33.736999603271485 Q 51.04800039672852 33.736999603271485 51.484500396728514 33.43549960327148 Q 51.921000396728516 33.133999603271484 52.272000396728515 32.620999603271486 Q 52.623000396728514 32.10799960327149 52.87500039672852 31.482499603271485 Q 53.12700039672852 30.856999603271483 53.26650039672852 30.186499603271486 Q 53.406000396728516 29.515999603271485 53.406000396728516 28.912999603271484 Q 53.406000396728516 28.651999603271484 53.370000396728514 28.354999603271484 Q 53.33400039672851 28.057999603271483 53.24400039672852 27.846499603271482 Q 53.15400039672852 27.634999603271485 53.001000396728514 27.634999603271485 Q 52.839000396728515 27.634999603271485 52.659000396728516 27.82849960327148 Q 52.479000396728516 28.02199960327148 52.303500396728516 28.323499603271483 Q 52.12800039672852 28.624999603271483 51.99750039672852 28.953499603271485 Q 51.867000396728514 29.281999603271483 51.81300039672852 29.542999603271483 Q 51.534000396728516 29.479999603271484 51.41250039672852 29.349499603271482 Q 51.29100039672851 29.218999603271484 51.29100039672851 29.047999603271485 Q 51.29100039672851 28.804999603271483 51.46200039672851 28.507999603271486 Q 51.63300039672852 28.210999603271482 51.898500396728515 27.936499603271486 Q 52.16400039672852 27.661999603271482 52.461000396728515 27.481999603271483 Q 52.75800039672852 27.301999603271483 53.001000396728514 27.301999603271483 Q 53.26200039672852 27.301999603271483 53.424000396728516 27.490999603271483 Q 53.586000396728515 27.679999603271483 53.67150039672852 27.972499603271483 Q 53.757000396728515 28.264999603271484 53.793000396728516 28.593499603271482 Q 53.82900039672852 28.921999603271484 53.82900039672852 29.209999603271484 Q 53.82900039672852 30.145999603271484 53.604000396728516 30.924499603271485 Q 53.379000396728514 31.702999603271483 53.001000396728514 32.29699960327149 Q 52.623000396728514 32.89099960327148 52.15500039672852 33.30049960327148 Q 51.687000396728514 33.709999603271484 51.19200039672852 33.916999603271485 Q 50.69700039672851 34.123999603271486 50.24700039672852 34.123999603271486 Z M 56.93674572753906 33.520999603271484 Q 56.603745727539064 33.520999603271484 56.428245727539064 33.349999603271485 Q 56.252745727539065 33.178999603271485 56.252745727539065 32.91799960327148 Q 56.252745727539065 32.72899960327148 56.31574572753906 32.52649960327148 Q 56.37874572753906 32.32399960327148 56.441745727539065 32.11249960327149 Q 56.50474572753906 31.900999603271483 56.50474572753906 31.702999603271483 Q 56.50474572753906 31.486999603271485 56.40574572753906 31.405999603271486 Q 56.30674572753906 31.324999603271486 56.17174572753906 31.324999603271486 Q 55.901745727539065 31.324999603271486 55.61824572753906 31.549999603271484 Q 55.334745727539065 31.774999603271485 55.06474572753906 32.11249960327149 Q 54.794745727539066 32.449999603271486 54.560745727539064 32.818999603271486 Q 54.32674572753906 33.187999603271486 54.15574572753906 33.47599960327148 Q 53.993745727539064 33.47599960327148 53.849745727539066 33.42199960327149 Q 53.70574572753906 33.367999603271485 53.606745727539064 33.23299960327149 Q 53.615745727539064 33.187999603271486 53.71024572753906 32.958499603271484 Q 53.804745727539064 32.72899960327148 53.92174572753906 32.400499603271484 Q 54.038745727539066 32.071999603271486 54.13324572753906 31.720999603271483 Q 54.227745727539066 31.369999603271484 54.227745727539066 31.072999603271484 Q 54.29074572753906 31.009999603271485 54.416745727539066 30.937999603271486 Q 54.542745727539064 30.865999603271483 54.67774572753906 30.865999603271483 Q 54.965745727539066 30.865999603271483 54.965745727539066 31.126999603271486 Q 54.965745727539066 31.243999603271483 54.91174572753906 31.500499603271486 Q 54.85774572753906 31.756999603271485 54.767745727539065 32.053999603271485 Q 55.01074572753906 31.720999603271483 55.294245727539064 31.414999603271482 Q 55.57774572753906 31.108999603271485 55.892745727539065 30.910999603271485 Q 56.20774572753906 30.712999603271484 56.53174572753906 30.712999603271484 Q 56.90074572753906 30.712999603271484 57.07624572753906 30.969499603271483 Q 57.25174572753906 31.225999603271482 57.25174572753906 31.540999603271484 Q 57.25174572753906 31.810999603271483 57.16174572753906 32.049499603271485 Q 57.07174572753906 32.28799960327149 56.986245727539064 32.49949960327148 Q 56.90074572753906 32.71099960327148 56.90074572753906 32.91799960327148 Q 56.90074572753906 33.07099960327148 56.96824572753906 33.138499603271484 Q 57.035745727539066 33.205999603271486 57.13474572753906 33.205999603271486 Q 57.35074572753906 33.205999603271486 57.580245727539065 32.994499603271485 Q 57.80974572753907 32.782999603271485 58.02124572753906 32.46349960327149 Q 58.23274572753906 32.14399960327148 58.39474572753906 31.819999603271484 L 58.529745727539066 31.936999603271484 Q 58.340745727539066 32.37799960327148 58.106745727539064 32.73799960327148 Q 57.87274572753906 33.09799960327148 57.584745727539065 33.30949960327148 Q 57.29674572753906 33.520999603271484 56.93674572753906 33.520999603271484 Z M 61.658633697509764 34.123999603271486 Q 61.352633697509766 34.123999603271486 61.07813369750976 34.04299960327148 Q 60.80363369750977 33.96199960327149 60.60563369750977 33.69199960327148 Q 60.65963369750977 33.40399960327149 60.772133697509766 32.958499603271484 Q 60.88463369750976 32.51299960327148 61.03763369750977 31.986499603271483 Q 61.19063369750977 31.459999603271484 61.35713369750977 30.919999603271485 Q 61.523633697509766 30.379999603271486 61.681133697509765 29.893999603271485 Q 61.83863369750976 29.407999603271485 61.96463369750977 29.043499603271485 Q 62.090633697509766 28.678999603271485 62.15363369750977 28.507999603271486 Q 62.18063369750976 28.435999603271483 62.243633697509765 28.291999603271485 Q 62.30663369750977 28.147999603271483 62.40113369750976 27.999499603271484 Q 62.49563369750977 27.850999603271482 62.621633697509765 27.747499603271486 Q 62.74763369750977 27.64399960327148 62.90063369750977 27.64399960327148 Q 63.04463369750977 27.64399960327148 63.206633697509766 27.751999603271486 Q 62.92763369750977 28.390999603271485 62.644133697509766 29.164999603271482 Q 62.36063369750977 29.938999603271483 62.104133697509766 30.757999603271486 Q 61.847633697509764 31.576999603271485 61.63613369750976 32.35549960327148 Q 61.42463369750977 33.133999603271484 61.280633697509764 33.77299960327149 Q 61.37063369750977 33.79999960327149 61.487633697509764 33.81349960327148 Q 61.60463369750977 33.82699960327148 61.712633697509766 33.82699960327148 Q 62.29763369750977 33.82699960327148 62.828633697509765 33.547999603271485 Q 63.359633697509764 33.26899960327148 63.80963369750977 32.800999603271485 Q 64.25963369750977 32.33299960327148 64.60163369750977 31.738999603271484 Q 64.94363369750977 31.144999603271483 65.12813369750977 30.505999603271484 Q 65.31263369750977 29.866999603271484 65.31263369750977 29.272999603271483 Q 65.31263369750977 28.543999603271484 65.06963369750977 28.080499603271484 Q 64.82663369750976 27.616999603271484 64.39913369750977 27.400999603271483 Q 63.971633697509766 27.184999603271486 63.413633697509766 27.184999603271486 Q 62.828633697509765 27.184999603271486 62.36063369750977 27.405499603271483 Q 61.892633697509766 27.625999603271485 61.62713369750976 27.999499603271484 Q 61.36163369750977 28.372999603271484 61.36163369750977 28.849999603271485 Q 61.36163369750977 28.95799960327148 61.37963369750977 29.056999603271485 Q 61.39763369750977 29.155999603271482 61.43363369750976 29.254999603271486 Q 61.07363369750976 29.254999603271486 60.920633697509764 29.092999603271483 Q 60.767633697509766 28.930999603271484 60.767633697509766 28.696999603271486 Q 60.767633697509766 28.381999603271485 60.99713369750977 28.062499603271483 Q 61.22663369750977 27.742999603271485 61.62713369750976 27.468499603271482 Q 62.02763369750976 27.193999603271482 62.55863369750976 27.027499603271483 Q 63.08963369750977 26.860999603271484 63.70163369750976 26.860999603271484 Q 64.56563369750977 26.860999603271484 65.08313369750977 27.193999603271482 Q 65.60063369750976 27.526999603271484 65.83463369750977 28.093999603271484 Q 66.06863369750977 28.660999603271485 66.06863369750977 29.362999603271483 Q 66.06863369750977 30.136999603271484 65.82113369750977 30.847999603271482 Q 65.57363369750976 31.558999603271484 65.14163369750976 32.15299960327148 Q 64.70963369750977 32.74699960327148 64.14263369750977 33.192499603271486 Q 63.575633697509765 33.63799960327148 62.94113369750977 33.88099960327148 Q 62.30663369750977 34.123999603271486 61.658633697509764 34.123999603271486 Z M 67.04313067626953 33.736999603271485 Q 66.47613067626953 33.736999603271485 66.17913067626954 33.43099960327149 Q 65.88213067626953 33.12499960327148 65.88213067626953 32.66599960327149 Q 65.88213067626953 32.260999603271486 66.08463067626953 31.815499603271483 Q 66.28713067626953 31.369999603271484 66.62913067626953 30.978499603271484 Q 66.97113067626952 30.586999603271483 67.38063067626953 30.339499603271484 Q 67.79013067626953 30.091999603271482 68.19513067626953 30.091999603271482 Q 68.42013067626954 30.091999603271482 68.62263067626954 30.208999603271483 Q 68.82513067626954 30.325999603271484 68.82513067626954 30.676999603271483 Q 68.82513067626954 31.018999603271485 68.62263067626954 31.320499603271486 Q 68.42013067626954 31.621999603271483 68.09163067626953 31.855999603271485 Q 67.76313067626953 32.08999960327149 67.36263067626953 32.238499603271485 Q 66.96213067626954 32.386999603271484 66.56613067626954 32.422999603271485 Q 66.55713067626954 32.47699960327149 66.54813067626954 32.53099960327148 Q 66.53913067626954 32.584999603271484 66.53913067626954 32.67499960327149 Q 66.53913067626954 32.74699960327148 66.56163067626953 32.86849960327149 Q 66.58413067626954 32.989999603271485 66.65163067626953 33.11149960327148 Q 66.71913067626953 33.23299960327149 66.86313067626953 33.31399960327148 Q 67.00713067626953 33.394999603271486 67.24113067626953 33.394999603271486 Q 67.61913067626953 33.394999603271486 68.00163067626953 33.178999603271485 Q 68.38413067626954 32.962999603271484 68.71713067626953 32.607499603271485 Q 69.05013067626953 32.251999603271486 69.27513067626953 31.819999603271484 L 69.42813067626953 31.945999603271485 Q 69.18513067626954 32.48599960327149 68.80713067626954 32.88649960327148 Q 68.42913067626954 33.28699960327148 67.97463067626953 33.511999603271484 Q 67.52013067626953 33.736999603271485 67.04313067626953 33.736999603271485 Z M 66.64713067626953 32.14399960327148 Q 66.88113067626954 32.09899960327149 67.17813067626953 31.959499603271485 Q 67.47513067626953 31.819999603271484 67.74513067626953 31.608499603271483 Q 68.01513067626954 31.396999603271485 68.19063067626954 31.144999603271483 Q 68.36613067626953 30.892999603271484 68.36613067626953 30.631999603271485 Q 68.36613067626953 30.532999603271485 68.33013067626953 30.487999603271483 Q 68.29413067626953 30.442999603271485 68.20413067626953 30.442999603271485 Q 67.98813067626953 30.442999603271485 67.75863067626953 30.600499603271484 Q 67.52913067626953 30.757999603271486 67.30863067626953 31.005499603271485 Q 67.08813067626953 31.252999603271483 66.91713067626954 31.554499603271484 Q 66.74613067626953 31.855999603271485 66.64713067626953 32.14399960327148 Z M 73.71783459472657 33.61999960327149 Q 73.37583459472657 33.61999960327149 73.21383459472656 33.41749960327149 Q 73.05183459472656 33.21499960327149 73.05183459472656 32.93599960327148 Q 73.05183459472656 32.71999960327148 73.11483459472656 32.50849960327148 Q 73.17783459472656 32.29699960327149 73.24533459472656 32.08999960327149 Q 73.31283459472657 31.882999603271486 73.31283459472657 31.711999603271483 Q 73.31283459472657 31.549999603271484 73.24533459472656 31.486999603271485 Q 73.17783459472656 31.423999603271483 73.08783459472656 31.423999603271483 Q 72.87183459472656 31.423999603271483 72.60183459472657 31.752499603271485 Q 72.33183459472656 32.080999603271486 71.91783459472656 32.69299960327148 Q 71.77383459472657 32.90899960327148 71.65683459472656 33.142999603271484 Q 71.53983459472656 33.376999603271486 71.44083459472657 33.547999603271485 Q 71.36883459472656 33.547999603271485 71.24283459472656 33.520999603271484 Q 71.11683459472657 33.49399960327148 71.02233459472656 33.44899960327148 Q 70.92783459472656 33.40399960327149 70.92783459472656 33.331999603271484 Q 70.92783459472656 33.25099960327148 71.01783459472657 33.016999603271486 Q 71.10783459472657 32.782999603271485 71.22483459472656 32.46799960327149 Q 71.34183459472656 32.15299960327148 71.42733459472656 31.842499603271484 Q 71.51283459472657 31.531999603271483 71.51283459472657 31.315999603271486 Q 71.51283459472657 31.180999603271484 71.46783459472657 31.104499603271485 Q 71.42283459472657 31.027999603271486 71.31483459472656 31.027999603271486 Q 71.12583459472657 31.027999603271486 70.85583459472656 31.257499603271484 Q 70.58583459472656 31.486999603271485 70.28883459472657 31.855999603271485 Q 69.99183459472657 32.224999603271485 69.73533459472657 32.67949960327149 Q 69.47883459472656 33.133999603271484 69.31683459472656 33.58399960327149 Q 69.21783459472657 33.58399960327149 69.08283459472656 33.547999603271485 Q 68.94783459472656 33.511999603271484 68.84883459472657 33.45799960327148 Q 68.74983459472656 33.40399960327149 68.74983459472656 33.358999603271485 Q 68.74983459472656 33.331999603271484 68.82183459472657 33.07999960327148 Q 68.89383459472656 32.827999603271486 68.99733459472657 32.45899960327149 Q 69.10083459472656 32.08999960327149 69.19533459472656 31.702999603271483 Q 69.28983459472656 31.315999603271486 69.34383459472656 31.018999603271485 Q 69.37983459472656 30.937999603271486 69.53283459472657 30.865999603271483 Q 69.68583459472656 30.793999603271484 69.81183459472656 30.793999603271484 Q 69.93783459472657 30.793999603271484 70.01433459472656 30.865999603271483 Q 70.09083459472656 30.937999603271486 70.09083459472656 31.063999603271483 Q 70.09083459472656 31.162999603271484 70.04583459472656 31.374499603271484 Q 70.00083459472657 31.585999603271485 69.92883459472657 31.837999603271484 Q 70.11783459472656 31.576999603271485 70.33383459472657 31.311499603271486 Q 70.54983459472656 31.045999603271483 70.78833459472656 30.829999603271485 Q 71.02683459472657 30.613999603271484 71.26533459472657 30.483499603271483 Q 71.50383459472657 30.352999603271485 71.73783459472656 30.352999603271485 Q 72.05283459472656 30.352999603271485 72.16533459472656 30.577999603271483 Q 72.27783459472656 30.802999603271484 72.27783459472656 31.081999603271484 Q 72.27783459472656 31.234999603271483 72.24633459472656 31.392499603271485 Q 72.21483459472657 31.549999603271484 72.17433459472656 31.698499603271483 Q 72.13383459472657 31.846999603271485 72.07983459472656 31.990999603271483 Q 72.25983459472656 31.702999603271483 72.47133459472656 31.455499603271484 Q 72.68283459472656 31.207999603271485 72.92583459472657 31.059499603271483 Q 73.16883459472656 30.910999603271485 73.44783459472656 30.910999603271485 Q 73.78083459472656 30.910999603271485 73.90683459472656 31.108999603271485 Q 74.03283459472657 31.306999603271485 74.03283459472657 31.549999603271484 Q 74.03283459472657 31.783999603271486 73.95633459472657 32.049499603271485 Q 73.87983459472656 32.31499960327148 73.79883459472656 32.55349960327148 Q 73.71783459472657 32.791999603271485 73.71783459472657 32.962999603271484 Q 73.71783459472657 33.06199960327148 73.76733459472656 33.142999603271484 Q 73.81683459472656 33.22399960327149 73.96083459472656 33.22399960327149 Q 74.20383459472656 33.22399960327149 74.42883459472657 32.998999603271486 Q 74.65383459472656 32.773999603271484 74.84283459472657 32.445499603271486 Q 75.03183459472656 32.11699960327148 75.16683459472657 31.819999603271484 L 75.31083459472656 31.981999603271483 Q 75.16683459472657 32.35999960327148 74.93733459472656 32.73799960327148 Q 74.70783459472656 33.11599960327148 74.40183459472657 33.367999603271485 Q 74.09583459472657 33.61999960327149 73.71783459472657 33.61999960327149 Z M 75.43047595214844 33.763999603271486 Q 75.14247595214843 33.763999603271486 74.93097595214844 33.570499603271486 Q 74.71947595214844 33.376999603271486 74.71947595214844 32.989999603271485 Q 74.71947595214844 32.66599960327149 74.86347595214843 32.29699960327149 Q 75.00747595214844 31.927999603271484 75.25947595214843 31.567999603271485 Q 75.51147595214844 31.207999603271485 75.83547595214844 30.910999603271485 Q 76.15947595214844 30.613999603271484 76.52397595214843 30.433999603271484 Q 76.88847595214844 30.253999603271485 77.24847595214844 30.253999603271485 Q 77.62647595214844 30.253999603271485 77.88297595214844 30.447499603271485 Q 78.13947595214844 30.640999603271485 78.13947595214844 30.955999603271483 Q 78.13947595214844 31.198999603271485 77.98647595214844 31.297999603271485 Q 77.83347595214843 31.396999603271485 77.60847595214844 31.360999603271484 Q 77.62647595214844 31.288999603271485 77.63997595214843 31.203499603271485 Q 77.65347595214844 31.117999603271485 77.65347595214844 31.036999603271482 Q 77.65347595214844 30.847999603271482 77.57247595214844 30.703999603271484 Q 77.49147595214843 30.559999603271486 77.25747595214844 30.559999603271486 Q 77.00547595214844 30.559999603271486 76.74447595214843 30.730999603271485 Q 76.48347595214844 30.901999603271484 76.24047595214844 31.180999603271484 Q 75.99747595214843 31.459999603271484 75.80847595214844 31.792999603271483 Q 75.61947595214843 32.12599960327148 75.51147595214844 32.449999603271486 Q 75.40347595214844 32.773999603271484 75.40347595214844 33.02599960327149 Q 75.40347595214844 33.331999603271484 75.62847595214843 33.331999603271484 Q 75.83547595214844 33.331999603271484 76.08297595214844 33.133999603271484 Q 76.33047595214843 32.93599960327148 76.58697595214844 32.629999603271486 Q 76.84347595214844 32.32399960327148 77.07747595214843 32.00449960327148 Q 77.31147595214844 31.684999603271486 77.48247595214843 31.441999603271483 Q 77.51847595214844 31.396999603271485 77.54547595214844 31.396999603271485 Q 77.59047595214844 31.405999603271486 77.68947595214844 31.437499603271483 Q 77.78847595214843 31.468999603271484 77.86947595214843 31.522999603271483 Q 77.95047595214844 31.576999603271485 77.95047595214844 31.666999603271485 Q 77.95047595214844 31.756999603271485 77.86947595214843 31.896499603271483 Q 77.78847595214843 32.035999603271485 77.68947595214844 32.206999603271484 Q 77.59047595214844 32.37799960327148 77.50947595214843 32.54899960327148 Q 77.42847595214843 32.71999960327148 77.42847595214843 32.88199960327148 Q 77.42847595214843 32.998999603271486 77.49597595214844 33.11149960327148 Q 77.56347595214844 33.22399960327149 77.71647595214844 33.22399960327149 Q 77.94147595214844 33.22399960327149 78.33297595214844 32.89549960327148 Q 78.72447595214844 32.56699960327148 79.12947595214844 31.819999603271484 L 79.27347595214843 31.963999603271485 Q 79.06647595214844 32.449999603271486 78.76497595214843 32.818999603271486 Q 78.46347595214844 33.187999603271486 78.13047595214844 33.39949960327149 Q 77.79747595214843 33.61099960327149 77.46447595214843 33.61099960327149 Q 77.10447595214843 33.61099960327149 76.93347595214844 33.390499603271486 Q 76.76247595214843 33.169999603271485 76.74447595214843 32.90899960327148 Q 76.74447595214843 32.88199960327148 76.74897595214844 32.85049960327149 Q 76.75347595214843 32.818999603271486 76.75347595214843 32.791999603271485 Q 76.38447595214843 33.25099960327148 76.07847595214844 33.507499603271484 Q 75.77247595214844 33.763999603271486 75.43047595214844 33.763999603271486 Z M 81.9061900024414 33.520999603271484 Q 81.57319000244141 33.520999603271484 81.39769000244141 33.349999603271485 Q 81.22219000244141 33.178999603271485 81.22219000244141 32.91799960327148 Q 81.22219000244141 32.72899960327148 81.28519000244141 32.52649960327148 Q 81.34819000244141 32.32399960327148 81.4111900024414 32.11249960327149 Q 81.4741900024414 31.900999603271483 81.4741900024414 31.702999603271483 Q 81.4741900024414 31.486999603271485 81.3751900024414 31.405999603271486 Q 81.27619000244141 31.324999603271486 81.1411900024414 31.324999603271486 Q 80.87119000244141 31.324999603271486 80.5876900024414 31.549999603271484 Q 80.3041900024414 31.774999603271485 80.0341900024414 32.11249960327149 Q 79.76419000244141 32.449999603271486 79.5301900024414 32.818999603271486 Q 79.2961900024414 33.187999603271486 79.1251900024414 33.47599960327148 Q 78.96319000244141 33.47599960327148 78.8191900024414 33.42199960327149 Q 78.67519000244141 33.367999603271485 78.57619000244141 33.23299960327149 Q 78.58519000244141 33.187999603271486 78.6796900024414 32.958499603271484 Q 78.7741900024414 32.72899960327148 78.8911900024414 32.400499603271484 Q 79.00819000244141 32.071999603271486 79.1026900024414 31.720999603271483 Q 79.1971900024414 31.369999603271484 79.1971900024414 31.072999603271484 Q 79.2601900024414 31.009999603271485 79.38619000244141 30.937999603271486 Q 79.5121900024414 30.865999603271483 79.6471900024414 30.865999603271483 Q 79.9351900024414 30.865999603271483 79.9351900024414 31.126999603271486 Q 79.9351900024414 31.243999603271483 79.8811900024414 31.500499603271486 Q 79.82719000244141 31.756999603271485 79.73719000244141 32.053999603271485 Q 79.9801900024414 31.720999603271483 80.26369000244141 31.414999603271482 Q 80.54719000244141 31.108999603271485 80.86219000244141 30.910999603271485 Q 81.1771900024414 30.712999603271484 81.5011900024414 30.712999603271484 Q 81.8701900024414 30.712999603271484 82.0456900024414 30.969499603271483 Q 82.2211900024414 31.225999603271482 82.2211900024414 31.540999603271484 Q 82.2211900024414 31.810999603271483 82.1311900024414 32.049499603271485 Q 82.04119000244141 32.28799960327149 81.9556900024414 32.49949960327148 Q 81.8701900024414 32.71099960327148 81.8701900024414 32.91799960327148 Q 81.8701900024414 33.07099960327148 81.9376900024414 33.138499603271484 Q 82.00519000244141 33.205999603271486 82.10419000244141 33.205999603271486 Q 82.32019000244141 33.205999603271486 82.54969000244141 32.994499603271485 Q 82.77919000244141 32.782999603271485 82.99069000244141 32.46349960327149 Q 83.20219000244141 32.14399960327148 83.3641900024414 31.819999603271484 L 83.49919000244141 31.936999603271484 Q 83.3101900024414 32.37799960327148 83.07619000244141 32.73799960327148 Q 82.84219000244141 33.09799960327148 82.5541900024414 33.30949960327148 Q 82.2661900024414 33.520999603271484 81.9061900024414 33.520999603271484 Z M 83.74661840820312 33.61099960327149 Q 83.57561840820313 33.61099960327149 83.40911840820313 33.529999603271484 Q 83.24261840820313 33.44899960327148 83.12561840820312 33.26899960327148 Q 83.00861840820312 33.08899960327148 83.00861840820312 32.818999603271486 Q 83.00861840820312 32.52199960327148 83.15261840820312 32.15299960327148 Q 83.29661840820313 31.783999603271486 83.54411840820312 31.414999603271482 Q 83.79161840820312 31.045999603271483 84.11561840820312 30.739999603271485 Q 84.43961840820313 30.433999603271484 84.79961840820313 30.244999603271484 Q 85.15961840820313 30.055999603271484 85.51961840820313 30.055999603271484 Q 85.71761840820312 30.055999603271484 85.83011840820312 30.123499603271483 Q 85.94261840820313 30.190999603271486 85.94261840820313 30.343999603271484 Q 85.94261840820313 30.388999603271483 85.92911840820312 30.433999603271484 Q 85.91561840820313 30.478999603271482 85.87061840820313 30.523999603271484 Q 85.82561840820313 30.460999603271485 85.74011840820313 30.438499603271485 Q 85.65461840820312 30.415999603271484 85.54661840820313 30.415999603271484 Q 85.24961840820312 30.415999603271484 84.97961840820312 30.582499603271483 Q 84.70961840820313 30.748999603271486 84.48011840820313 31.018999603271485 Q 84.25061840820312 31.288999603271485 84.08411840820312 31.599499603271482 Q 83.91761840820313 31.909999603271483 83.82761840820312 32.202499603271484 Q 83.73761840820312 32.49499960327148 83.73761840820312 32.70199960327148 Q 83.73761840820312 32.88199960327148 83.81411840820313 32.989999603271485 Q 83.89061840820312 33.09799960327148 84.03461840820313 33.09799960327148 Q 84.27761840820312 33.09799960327148 84.61961840820312 32.805499603271485 Q 84.96161840820312 32.51299960327148 85.31711840820313 31.968499603271486 Q 85.67261840820312 31.423999603271483 85.96061840820313 30.676999603271483 Q 86.15861840820313 30.163999603271485 86.37461840820312 29.628499603271486 Q 86.59061840820313 29.092999603271483 86.80661840820312 28.593499603271482 Q 87.02261840820313 28.093999603271484 87.22961840820312 27.706999603271484 Q 87.43661840820313 27.319999603271484 87.62561840820312 27.090499603271482 Q 87.81461840820313 26.860999603271484 87.97661840820312 26.860999603271484 Q 88.06661840820313 26.860999603271484 88.13411840820312 26.932999603271483 Q 88.20161840820313 27.004999603271486 88.20161840820313 27.112999603271483 Q 88.20161840820313 27.256999603271485 88.05311840820312 27.598999603271483 Q 87.90461840820312 27.940999603271486 87.67061840820313 28.413499603271482 Q 87.43661840820313 28.885999603271483 87.17561840820312 29.439499603271486 Q 86.91461840820313 29.992999603271485 86.68061840820313 30.568999603271486 Q 86.44661840820312 31.144999603271483 86.29811840820312 31.693999603271486 Q 86.14961840820312 32.242999603271485 86.14961840820312 32.71999960327148 Q 86.14961840820312 32.944999603271484 86.18561840820313 33.03949960327149 Q 86.22161840820313 33.133999603271484 86.33861840820313 33.133999603271484 Q 86.53661840820313 33.133999603271484 86.77961840820312 32.976499603271485 Q 87.02261840820313 32.818999603271486 87.27461840820312 32.51749960327148 Q 87.52661840820312 32.215999603271484 87.73361840820313 31.801999603271483 L 87.87761840820312 31.918999603271484 Q 87.68861840820313 32.404999603271484 87.38711840820312 32.778499603271484 Q 87.08561840820313 33.151999603271484 86.73911840820313 33.363499603271485 Q 86.39261840820312 33.574999603271486 86.05961840820312 33.574999603271486 Q 85.70861840820312 33.574999603271486 85.56911840820312 33.345499603271485 Q 85.42961840820313 33.11599960327148 85.42961840820313 32.827999603271486 Q 85.42961840820313 32.68399960327149 85.45661840820313 32.49949960327148 Q 85.48361840820313 32.31499960327148 85.52861840820313 32.11699960327148 Q 85.24961840820312 32.54899960327148 84.93461840820312 32.88649960327148 Q 84.61961840820312 33.22399960327149 84.31811840820312 33.41749960327149 Q 84.01661840820313 33.61099960327149 83.74661840820312 33.61099960327149 Z" transform="matrix(1, 0, 0, 1, 0, 0)" style="fill: rgb(179, 205, 190); text-transform: capitalize; white-space: pre;"/>
</svg>