<?xml version="1.0" encoding="utf-8"?>
<svg viewBox="0 0 163 40" fill="none" xmlns="http://www.w3.org/2000/svg">
  <path d="M38.125 19.8876C38.1494 23.0542 37.3398 26.1714 35.7774 28.9259C35.575 29.2837 35.3607 29.6337 35.1344 29.9759C35.0225 30.1498 34.8772 30.2998 34.7069 30.4171C34.5367 30.5345 34.3448 30.6169 34.1424 30.6595C33.94 30.7021 33.7312 30.7041 33.5281 30.6655C33.3249 30.6268 33.1315 30.5482 32.9589 30.4341C32.7864 30.3201 32.6382 30.173 32.523 30.0013C32.4077 29.8296 32.3277 29.6367 32.2875 29.4338C32.2474 29.231 32.2479 29.0222 32.2891 28.8195C32.3303 28.6168 32.4113 28.4244 32.5274 28.2532C34.0185 25.9897 34.8685 23.3644 34.987 20.6564C35.1054 17.9484 34.4879 15.2589 33.2001 12.8738C31.9123 10.4887 30.0022 8.49708 27.673 7.11069C25.3438 5.7243 22.6825 4.99493 19.9719 5.0001C14.7618 5.01026 10.1422 7.74541 7.45706 11.8321C5.85189 14.2703 4.99772 17.1259 5.0005 20.045C5.00327 22.9641 5.86288 25.8182 7.47269 28.2532C7.70092 28.5991 7.78239 29.0216 7.69917 29.4275C7.61595 29.8335 7.37486 30.1898 7.02894 30.4181C6.68302 30.6463 6.2606 30.7278 5.85461 30.6445C5.44863 30.5613 5.09233 30.3202 4.8641 29.9743C3.0791 27.2655 2.05381 24.1272 1.89521 20.887C1.73662 17.6468 2.45053 14.4235 3.96245 11.5533C5.47437 8.68306 7.72889 6.27121 10.4907 4.56941C13.2526 2.86761 16.4206 1.93822 19.6641 1.87822C19.7782 1.87588 19.8914 1.8751 20.0047 1.8751C24.7949 1.86523 29.3933 3.75637 32.7905 7.13341C36.1878 10.5105 38.1063 15.0975 38.125 19.8876Z" fill="#494D4B"/>
  <path d="M9.06588 22.7944L11.8978 36.8819C12.0678 37.7276 12.8911 38.2753 13.7368 38.1053C14.5825 37.9353 15.1303 37.1119 14.9603 36.2663L12.1284 22.1788C11.9584 21.3331 11.135 20.7853 10.2893 20.9553C9.44363 21.1253 8.89588 21.9487 9.06588 22.7944Z" style="fill: rgb(179, 205, 190);"/>
  <path d="M11.8438 36.5641L11.1258 36.7086C10.059 36.9234 8.95038 36.7225 8.02677 36.147C7.10316 35.5715 6.43432 34.6648 6.15706 33.6125C6.13597 33.5313 6.11644 33.45 6.10003 33.3672L5.07112 28.2555C4.84815 27.1459 5.07485 25.9931 5.70141 25.0506C6.32796 24.108 7.3031 23.4528 8.41253 23.2289L9.1305 23.0844L10.3899 29.3406L11.8438 36.5641Z" fill="#494D4B"/>
  <path d="M11.8438 36.5641L11.1259 36.7086C10.059 36.9234 8.95043 36.7225 8.02682 36.147C7.1032 35.5715 6.43437 34.6649 6.1571 33.6125C7.67448 32.2981 9.08951 30.87 10.3899 29.3407L11.8438 36.5641Z" fill="#494D4B"/>
  <path d="M36.1477 27.0875L35.7774 28.9258C35.575 29.2836 35.3607 29.6336 35.1344 29.9758C35.0225 30.1497 34.8772 30.2997 34.7069 30.4171C34.5366 30.5344 34.3448 30.6168 34.1424 30.6594C33.94 30.702 33.7312 30.7041 33.5281 30.6654C33.3249 30.6267 33.1315 30.5481 32.9589 30.4341C32.7864 30.3201 32.6382 30.1729 32.5229 30.0012C32.4077 29.8295 32.3277 29.6366 32.2875 29.4338C32.2474 29.2309 32.2479 29.0221 32.2891 28.8194C32.3303 28.6167 32.4112 28.4243 32.5274 28.2531C33.5865 26.6502 34.3258 24.8577 34.7047 22.9742C35.2927 23.4668 35.7371 24.1089 35.991 24.8327C36.245 25.5566 36.2991 26.3355 36.1477 27.0875Z" fill="#494D4B"/>
  <path d="M34.2953 8.82971L32.0539 11.0711C30.6573 9.1825 28.836 7.64891 26.7371 6.59426C24.6383 5.53962 22.3208 4.99349 19.9719 5.00002C14.7617 5.01017 10.1422 7.74533 7.45703 11.832L5.18359 9.55861C6.82274 7.22938 8.98843 5.31984 11.5046 3.98527C14.0207 2.65069 16.8163 1.92875 19.6641 1.87814C19.7781 1.8758 19.8914 1.87502 20.0047 1.87502C22.7591 1.86885 25.4786 2.49223 27.9553 3.69756C30.4321 4.9029 32.6006 6.6583 34.2953 8.82971Z" style="fill: rgb(179, 205, 190);"/>
  <path d="M27.8464 22.1635L25.0145 36.251C24.8445 37.0967 25.3922 37.9201 26.2379 38.0901C27.0836 38.2601 27.907 37.7123 28.077 36.8666L30.9089 22.7791C31.0789 21.9335 30.5311 21.1101 29.6854 20.9401C28.8397 20.7701 28.0164 21.3178 27.8464 22.1635Z" style="fill: rgb(179, 205, 190);"/>
  <path d="M34.9289 28.2555L33.9 33.3672C33.6766 34.4767 33.0216 35.4521 32.0791 36.0787C31.1366 36.7054 29.9838 36.9319 28.8742 36.7086L28.1562 36.5641L28.9 32.8711L30.8695 23.0844L31.5875 23.2289C32.6968 23.4531 33.672 24.108 34.2992 25.05C34.3856 25.1799 34.4646 25.3144 34.5359 25.4531C34.9817 26.3154 35.1203 27.3038 34.9289 28.2555Z" fill="#494D4B"/>
  <path d="M34.9289 28.2555L33.9 33.3672C33.6766 34.4768 33.0216 35.4521 32.0791 36.0788C31.1366 36.7054 29.9838 36.932 28.8742 36.7086L28.1562 36.5641L28.9 32.8711C31.0403 30.6086 32.9299 28.1215 34.5359 25.4531C34.9817 26.3154 35.1203 27.3039 34.9289 28.2555Z" fill="#494D4B"/>
  <path d="M 48.327 13.957 L 51.657 13.957 L 51.657 25.947 L 48.327 25.947 L 48.327 13.957 ZM 64.803 17.907 L 61.213 17.907 C 61.02 17.587 60.756 17.344 60.423 17.177 C 60.09 17.004 59.696 16.917 59.243 16.917 C 58.403 16.917 57.743 17.19 57.263 17.737 C 56.783 18.277 56.543 19.007 56.543 19.927 C 56.543 20.96 56.8 21.747 57.313 22.287 C 57.826 22.82 58.576 23.087 59.563 23.087 C 60.73 23.087 61.563 22.56 62.063 21.507 L 58.713 21.507 L 58.713 19.117 L 64.943 19.117 L 64.943 22.347 C 64.676 22.98 64.293 23.574 63.793 24.127 C 63.286 24.68 62.65 25.137 61.883 25.497 C 61.11 25.857 60.23 26.037 59.243 26.037 C 58.043 26.037 56.98 25.777 56.053 25.257 C 55.133 24.744 54.42 24.024 53.913 23.097 C 53.406 22.177 53.153 21.12 53.153 19.927 C 53.153 18.747 53.406 17.697 53.913 16.777 C 54.42 15.85 55.13 15.13 56.043 14.617 C 56.963 14.104 58.023 13.847 59.223 13.847 C 60.73 13.847 61.976 14.207 62.963 14.927 C 63.95 15.654 64.563 16.647 64.803 17.907 ZM 66.022 19.927 C 66.022 18.747 66.269 17.697 66.762 16.777 C 67.255 15.85 67.955 15.13 68.862 14.617 C 69.769 14.104 70.812 13.847 71.992 13.847 C 73.492 13.847 74.752 14.244 75.772 15.037 C 76.792 15.837 77.449 16.924 77.742 18.297 L 74.152 18.297 C 73.939 17.844 73.642 17.497 73.262 17.257 C 72.882 17.024 72.442 16.907 71.942 16.907 C 71.169 16.907 70.555 17.18 70.102 17.727 C 69.642 18.274 69.412 19.007 69.412 19.927 C 69.412 20.86 69.642 21.6 70.102 22.147 C 70.555 22.694 71.169 22.967 71.942 22.967 C 72.442 22.967 72.882 22.85 73.262 22.617 C 73.642 22.377 73.939 22.03 74.152 21.577 L 77.742 21.577 C 77.449 22.95 76.792 24.037 75.772 24.837 C 74.752 25.637 73.492 26.037 71.992 26.037 C 70.812 26.037 69.769 25.777 68.862 25.257 C 67.955 24.744 67.255 24.024 66.762 23.097 C 66.269 22.177 66.022 21.12 66.022 19.927 ZM 90.558 17.907 L 86.968 17.907 C 86.775 17.587 86.511 17.344 86.178 17.177 C 85.845 17.004 85.451 16.917 84.998 16.917 C 84.158 16.917 83.498 17.19 83.018 17.737 C 82.538 18.277 82.298 19.007 82.298 19.927 C 82.298 20.96 82.555 21.747 83.068 22.287 C 83.581 22.82 84.331 23.087 85.318 23.087 C 86.485 23.087 87.318 22.56 87.818 21.507 L 84.468 21.507 L 84.468 19.117 L 90.698 19.117 L 90.698 22.347 C 90.431 22.98 90.048 23.574 89.548 24.127 C 89.041 24.68 88.405 25.137 87.638 25.497 C 86.865 25.857 85.985 26.037 84.998 26.037 C 83.798 26.037 82.735 25.777 81.808 25.257 C 80.888 24.744 80.175 24.024 79.668 23.097 C 79.161 22.177 78.908 21.12 78.908 19.927 C 78.908 18.747 79.161 17.697 79.668 16.777 C 80.175 15.85 80.885 15.13 81.798 14.617 C 82.718 14.104 83.778 13.847 84.978 13.847 C 86.485 13.847 87.731 14.207 88.718 14.927 C 89.705 15.654 90.318 16.647 90.558 17.907 ZM 102.167 13.957 L 106.177 13.957 L 106.177 25.947 L 102.847 25.947 L 102.847 19.337 L 100.587 25.947 L 97.797 25.947 L 95.517 19.287 L 95.517 25.947 L 92.187 25.947 L 92.187 13.957 L 96.217 13.957 L 99.227 21.747 L 102.167 13.957 ZM 114.492 16.407 L 117.842 16.407 L 117.842 25.947 L 114.492 25.947 L 114.492 24.587 C 114.212 25.02 113.822 25.37 113.322 25.637 C 112.822 25.904 112.249 26.037 111.602 26.037 C 110.495 26.037 109.619 25.67 108.972 24.937 C 108.332 24.204 108.012 23.207 108.012 21.947 L 108.012 16.407 L 111.332 16.407 L 111.332 21.527 C 111.332 22.074 111.475 22.5 111.762 22.807 C 112.055 23.12 112.439 23.277 112.912 23.277 C 113.399 23.277 113.785 23.12 114.072 22.807 C 114.352 22.5 114.492 22.074 114.492 21.527 L 114.492 16.407 ZM 123.814 26.067 C 122.947 26.067 122.177 25.924 121.504 25.637 C 120.831 25.344 120.297 24.947 119.904 24.447 C 119.517 23.94 119.301 23.37 119.254 22.737 L 122.484 22.737 C 122.531 23.044 122.671 23.28 122.904 23.447 C 123.144 23.62 123.441 23.707 123.794 23.707 C 124.067 23.707 124.281 23.65 124.434 23.537 C 124.594 23.424 124.674 23.274 124.674 23.087 C 124.674 22.854 124.544 22.68 124.284 22.567 C 124.024 22.454 123.594 22.327 122.994 22.187 C 122.314 22.054 121.747 21.9 121.294 21.727 C 120.841 21.56 120.447 21.284 120.114 20.897 C 119.781 20.51 119.614 19.99 119.614 19.337 C 119.614 18.77 119.767 18.257 120.074 17.797 C 120.374 17.337 120.824 16.97 121.424 16.697 C 122.017 16.424 122.734 16.287 123.574 16.287 C 124.821 16.287 125.801 16.594 126.514 17.207 C 127.227 17.82 127.641 18.627 127.754 19.627 L 124.744 19.627 C 124.691 19.32 124.557 19.084 124.344 18.917 C 124.137 18.75 123.857 18.667 123.504 18.667 C 123.231 18.667 123.024 18.72 122.884 18.827 C 122.744 18.927 122.674 19.067 122.674 19.247 C 122.674 19.474 122.804 19.647 123.064 19.767 C 123.324 19.887 123.744 20.01 124.324 20.137 C 125.011 20.284 125.584 20.447 126.044 20.627 C 126.504 20.807 126.907 21.097 127.254 21.497 C 127.601 21.904 127.774 22.45 127.774 23.137 C 127.774 23.697 127.611 24.197 127.284 24.637 C 126.964 25.077 126.504 25.427 125.904 25.687 C 125.311 25.94 124.614 26.067 123.814 26.067 ZM 131.09 15.527 C 130.497 15.527 130.023 15.364 129.67 15.037 C 129.31 14.717 129.13 14.314 129.13 13.827 C 129.13 13.327 129.31 12.914 129.67 12.587 C 130.023 12.254 130.497 12.087 131.09 12.087 C 131.663 12.087 132.13 12.254 132.49 12.587 C 132.843 12.914 133.02 13.327 133.02 13.827 C 133.02 14.314 132.843 14.717 132.49 15.037 C 132.13 15.364 131.663 15.527 131.09 15.527 Z M 129.4 16.407 L 132.73 16.407 L 132.73 25.947 L 129.4 25.947 L 129.4 16.407 ZM 134.096 21.167 C 134.096 20.18 134.299 19.32 134.706 18.587 C 135.113 17.847 135.683 17.28 136.416 16.887 C 137.149 16.487 137.986 16.287 138.926 16.287 C 140.139 16.287 141.159 16.62 141.986 17.287 C 142.813 17.947 143.343 18.874 143.576 20.067 L 140.046 20.067 C 139.839 19.44 139.443 19.127 138.856 19.127 C 138.436 19.127 138.103 19.3 137.856 19.647 C 137.616 19.994 137.496 20.5 137.496 21.167 C 137.496 21.84 137.616 22.35 137.856 22.697 C 138.103 23.05 138.436 23.227 138.856 23.227 C 139.456 23.227 139.853 22.914 140.046 22.287 L 143.576 22.287 C 143.343 23.467 142.813 24.394 141.986 25.067 C 141.159 25.734 140.139 26.067 138.926 26.067 C 137.986 26.067 137.149 25.867 136.416 25.467 C 135.683 25.074 135.113 24.507 134.706 23.767 C 134.299 23.034 134.096 22.167 134.096 21.167 Z" transform="matrix(1, 0, 0, 1, 0, 0)" style="fill: rgb(73, 77, 75); white-space: pre;"/>
</svg>