<?xml version="1.0" encoding="utf-8"?>
<svg viewBox="0 0 500 500" xmlns="http://www.w3.org/2000/svg">
  <path d="M 409.053 79.158 L 317.637 79.158 L 310.477 64.913 C 307.383 58.701 301.038 54.776 294.098 54.781 L 207.024 54.781 C 200.097 54.754 193.765 58.69 190.722 64.913 L 183.561 79.158 L 92.145 79.158 C 85.414 79.158 79.957 84.616 79.957 91.347 L 79.957 115.725 C 79.957 122.457 85.414 127.913 92.145 127.913 L 409.053 127.913 C 415.785 127.913 421.242 122.457 421.242 115.725 L 421.242 91.347 C 421.242 84.616 415.785 79.158 409.053 79.158 Z M 120.484 410.54 C 121.691 429.808 137.669 444.819 156.974 444.821 L 344.224 444.821 C 363.53 444.819 379.508 429.808 380.714 410.54 L 396.864 152.291 L 104.334 152.291 Z" style="fill: rgb(179, 205, 190);"/>
</svg>